<mxfile host="app.diagrams.net" modified="2024-05-20T04:41:10.663Z" agent="Mozilla/5.0 (Windows NT 10.0; Win64; x64; rv:126.0) Gecko/20100101 Firefox/126.0" etag="zVLTE8meVgW4qRwAmkLh" version="24.2.0" type="github">
  <diagram name="Page-1" id="Y9QH2AxHd4JXf_sEuwCM">
    <mxGraphModel dx="3344" dy="1969" grid="1" gridSize="10" guides="1" tooltips="1" connect="1" arrows="1" fold="1" page="1" pageScale="1" pageWidth="850" pageHeight="1100" math="0" shadow="0">
      <root>
        <mxCell id="0" />
        <mxCell id="1" parent="0" />
        <mxCell id="ZzJajBz_bkJ8uXGdbWyk-1" value="VPC - &lt;span style=&quot;white-space: pre;&quot;&gt;10.0.0.0/16&lt;/span&gt;" style="points=[[0,0],[0.25,0],[0.5,0],[0.75,0],[1,0],[1,0.25],[1,0.5],[1,0.75],[1,1],[0.75,1],[0.5,1],[0.25,1],[0,1],[0,0.75],[0,0.5],[0,0.25]];outlineConnect=0;html=1;whiteSpace=wrap;fontSize=12;fontStyle=0;container=1;pointerEvents=0;collapsible=0;recursiveResize=0;shape=mxgraph.aws4.group;grIcon=mxgraph.aws4.group_vpc2;verticalAlign=top;align=left;spacingLeft=30;dashed=0;strokeColor=#BDB701;" vertex="1" parent="1">
          <mxGeometry x="-460" y="-330" width="1520" height="890" as="geometry" />
        </mxCell>
        <mxCell id="ZzJajBz_bkJ8uXGdbWyk-15" style="edgeStyle=orthogonalEdgeStyle;rounded=0;orthogonalLoop=1;jettySize=auto;html=1;" edge="1" parent="ZzJajBz_bkJ8uXGdbWyk-1" source="ZzJajBz_bkJ8uXGdbWyk-2" target="ZzJajBz_bkJ8uXGdbWyk-11">
          <mxGeometry relative="1" as="geometry" />
        </mxCell>
        <mxCell id="ZzJajBz_bkJ8uXGdbWyk-2" value="Subnet - public - us-west-2a - 10.0.0.0/19" style="sketch=0;outlineConnect=0;html=1;whiteSpace=wrap;fontSize=12;fontStyle=0;shape=mxgraph.aws4.group;grIcon=mxgraph.aws4.group_subnet;strokeColor=#6c8ebf;fillColor=#dae8fc;verticalAlign=top;align=left;spacingLeft=30;dashed=0;" vertex="1" parent="ZzJajBz_bkJ8uXGdbWyk-1">
          <mxGeometry x="79" y="270" width="260" height="500" as="geometry" />
        </mxCell>
        <mxCell id="ZzJajBz_bkJ8uXGdbWyk-18" value="" style="edgeStyle=orthogonalEdgeStyle;rounded=0;orthogonalLoop=1;jettySize=auto;html=1;" edge="1" parent="ZzJajBz_bkJ8uXGdbWyk-1" source="ZzJajBz_bkJ8uXGdbWyk-3" target="ZzJajBz_bkJ8uXGdbWyk-12">
          <mxGeometry relative="1" as="geometry" />
        </mxCell>
        <mxCell id="ZzJajBz_bkJ8uXGdbWyk-3" value="Subnet&amp;nbsp;- public - us-west-2b - 10.0.32.0/19" style="sketch=0;outlineConnect=0;html=1;whiteSpace=wrap;fontSize=12;fontStyle=0;shape=mxgraph.aws4.group;grIcon=mxgraph.aws4.group_subnet;strokeColor=#6c8ebf;fillColor=#dae8fc;verticalAlign=top;align=left;spacingLeft=30;dashed=0;" vertex="1" parent="ZzJajBz_bkJ8uXGdbWyk-1">
          <mxGeometry x="369" y="270" width="260" height="500" as="geometry" />
        </mxCell>
        <mxCell id="ZzJajBz_bkJ8uXGdbWyk-19" style="edgeStyle=orthogonalEdgeStyle;rounded=0;orthogonalLoop=1;jettySize=auto;html=1;" edge="1" parent="ZzJajBz_bkJ8uXGdbWyk-1" source="ZzJajBz_bkJ8uXGdbWyk-4" target="ZzJajBz_bkJ8uXGdbWyk-13">
          <mxGeometry relative="1" as="geometry" />
        </mxCell>
        <mxCell id="ZzJajBz_bkJ8uXGdbWyk-4" value="Subnet&amp;nbsp;- private - us-west-2a - 10.0.64.0/19" style="sketch=0;outlineConnect=0;html=1;whiteSpace=wrap;fontSize=12;fontStyle=0;shape=mxgraph.aws4.group;grIcon=mxgraph.aws4.group_subnet;strokeColor=#36393d;fillColor=#eeeeee;verticalAlign=top;align=left;spacingLeft=30;dashed=0;" vertex="1" parent="ZzJajBz_bkJ8uXGdbWyk-1">
          <mxGeometry x="659" y="270" width="260" height="500" as="geometry" />
        </mxCell>
        <mxCell id="ZzJajBz_bkJ8uXGdbWyk-5" value="Subnet&amp;nbsp;- private - us-west-2a - 10.0.96.0/19" style="sketch=0;outlineConnect=0;html=1;whiteSpace=wrap;fontSize=12;fontStyle=0;shape=mxgraph.aws4.group;grIcon=mxgraph.aws4.group_subnet;strokeColor=#36393d;fillColor=#eeeeee;verticalAlign=top;align=left;spacingLeft=30;dashed=0;" vertex="1" parent="ZzJajBz_bkJ8uXGdbWyk-1">
          <mxGeometry x="949" y="270" width="260" height="500" as="geometry" />
        </mxCell>
        <mxCell id="ZzJajBz_bkJ8uXGdbWyk-6" value="NAT Gateway" style="sketch=0;outlineConnect=0;fontColor=#232F3E;gradientColor=none;fillColor=#8C4FFF;strokeColor=none;dashed=0;verticalLabelPosition=bottom;verticalAlign=top;align=center;html=1;fontSize=12;fontStyle=0;aspect=fixed;pointerEvents=1;shape=mxgraph.aws4.nat_gateway;" vertex="1" parent="ZzJajBz_bkJ8uXGdbWyk-1">
          <mxGeometry x="170" y="630" width="78" height="78" as="geometry" />
        </mxCell>
        <mxCell id="ZzJajBz_bkJ8uXGdbWyk-7" value="Internet Gateway" style="sketch=0;outlineConnect=0;fontColor=#232F3E;gradientColor=none;fillColor=#8C4FFF;strokeColor=none;dashed=0;verticalLabelPosition=bottom;verticalAlign=top;align=center;html=1;fontSize=12;fontStyle=0;aspect=fixed;pointerEvents=1;shape=mxgraph.aws4.internet_gateway;" vertex="1" parent="ZzJajBz_bkJ8uXGdbWyk-1">
          <mxGeometry x="596" y="20" width="78" height="78" as="geometry" />
        </mxCell>
        <mxCell id="ZzJajBz_bkJ8uXGdbWyk-16" style="edgeStyle=orthogonalEdgeStyle;rounded=0;orthogonalLoop=1;jettySize=auto;html=1;" edge="1" parent="ZzJajBz_bkJ8uXGdbWyk-1" source="ZzJajBz_bkJ8uXGdbWyk-11" target="ZzJajBz_bkJ8uXGdbWyk-7">
          <mxGeometry relative="1" as="geometry">
            <Array as="points">
              <mxPoint x="210" y="60" />
            </Array>
          </mxGeometry>
        </mxCell>
        <mxCell id="ZzJajBz_bkJ8uXGdbWyk-11" value="&lt;span style=&quot;background-color: rgb(255, 255, 255);&quot;&gt;Route table&lt;/span&gt;" style="sketch=0;outlineConnect=0;dashed=0;verticalLabelPosition=bottom;verticalAlign=top;align=center;html=1;fontSize=12;fontStyle=0;aspect=fixed;shape=mxgraph.aws4.resourceIcon;resIcon=mxgraph.aws4.route_table;strokeColor=#8CB6FF;" vertex="1" parent="ZzJajBz_bkJ8uXGdbWyk-1">
          <mxGeometry x="179" y="140" width="60" height="60" as="geometry" />
        </mxCell>
        <mxCell id="ZzJajBz_bkJ8uXGdbWyk-17" style="edgeStyle=orthogonalEdgeStyle;rounded=0;orthogonalLoop=1;jettySize=auto;html=1;" edge="1" parent="ZzJajBz_bkJ8uXGdbWyk-1" source="ZzJajBz_bkJ8uXGdbWyk-12" target="ZzJajBz_bkJ8uXGdbWyk-7">
          <mxGeometry relative="1" as="geometry">
            <Array as="points">
              <mxPoint x="499" y="60" />
            </Array>
          </mxGeometry>
        </mxCell>
        <mxCell id="ZzJajBz_bkJ8uXGdbWyk-12" value="&lt;span style=&quot;background-color: rgb(255, 255, 255);&quot;&gt;Route table&lt;/span&gt;" style="sketch=0;outlineConnect=0;dashed=0;verticalLabelPosition=bottom;verticalAlign=top;align=center;html=1;fontSize=12;fontStyle=0;aspect=fixed;shape=mxgraph.aws4.resourceIcon;resIcon=mxgraph.aws4.route_table;strokeColor=#8CB6FF;" vertex="1" parent="ZzJajBz_bkJ8uXGdbWyk-1">
          <mxGeometry x="469" y="140" width="60" height="60" as="geometry" />
        </mxCell>
        <mxCell id="ZzJajBz_bkJ8uXGdbWyk-21" style="edgeStyle=orthogonalEdgeStyle;rounded=0;orthogonalLoop=1;jettySize=auto;html=1;" edge="1" parent="ZzJajBz_bkJ8uXGdbWyk-1" source="ZzJajBz_bkJ8uXGdbWyk-13" target="ZzJajBz_bkJ8uXGdbWyk-6">
          <mxGeometry relative="1" as="geometry">
            <Array as="points">
              <mxPoint x="730" y="170" />
              <mxPoint x="730" y="240" />
              <mxPoint x="40" y="240" />
              <mxPoint x="40" y="669" />
            </Array>
          </mxGeometry>
        </mxCell>
        <mxCell id="ZzJajBz_bkJ8uXGdbWyk-13" value="&lt;span style=&quot;background-color: rgb(255, 255, 255);&quot;&gt;Route table&lt;/span&gt;" style="sketch=0;outlineConnect=0;fontColor=#232F3E;gradientColor=none;strokeColor=#232F3E;fillColor=#ffffff;dashed=0;verticalLabelPosition=bottom;verticalAlign=top;align=center;html=1;fontSize=12;fontStyle=0;aspect=fixed;shape=mxgraph.aws4.resourceIcon;resIcon=mxgraph.aws4.route_table;" vertex="1" parent="ZzJajBz_bkJ8uXGdbWyk-1">
          <mxGeometry x="759" y="140" width="60" height="60" as="geometry" />
        </mxCell>
        <mxCell id="ZzJajBz_bkJ8uXGdbWyk-20" style="edgeStyle=orthogonalEdgeStyle;rounded=0;orthogonalLoop=1;jettySize=auto;html=1;startArrow=none;startFill=0;" edge="1" parent="ZzJajBz_bkJ8uXGdbWyk-1" target="ZzJajBz_bkJ8uXGdbWyk-14">
          <mxGeometry relative="1" as="geometry">
            <mxPoint x="1078.9299999999998" y="270" as="sourcePoint" />
            <mxPoint x="1078.9299999999998" y="200" as="targetPoint" />
            <Array as="points" />
          </mxGeometry>
        </mxCell>
        <mxCell id="ZzJajBz_bkJ8uXGdbWyk-36" value="EKS" style="sketch=0;points=[[0,0,0],[0.25,0,0],[0.5,0,0],[0.75,0,0],[1,0,0],[0,1,0],[0.25,1,0],[0.5,1,0],[0.75,1,0],[1,1,0],[0,0.25,0],[0,0.5,0],[0,0.75,0],[1,0.25,0],[1,0.5,0],[1,0.75,0]];outlineConnect=0;fontColor=#232F3E;fillColor=#ED7100;strokeColor=#ffffff;dashed=0;verticalLabelPosition=bottom;verticalAlign=top;align=center;html=1;fontSize=12;fontStyle=0;aspect=fixed;shape=mxgraph.aws4.resourceIcon;resIcon=mxgraph.aws4.eks;" vertex="1" parent="ZzJajBz_bkJ8uXGdbWyk-1">
          <mxGeometry x="40" y="70" width="78" height="78" as="geometry" />
        </mxCell>
        <mxCell id="ZzJajBz_bkJ8uXGdbWyk-8" value="&lt;div align=&quot;left&quot;&gt;AWS Role&lt;br&gt;&lt;/div&gt;&lt;div align=&quot;left&quot;&gt;eks-node-group-nodes&lt;/div&gt;&lt;div align=&quot;left&quot;&gt;&lt;br&gt;&lt;/div&gt;&lt;div align=&quot;left&quot;&gt;arn:aws:iam::aws:policy/AmazonEKSWorkerNodePolicy - Permite EC2 workers interagir com serviços da AWS&lt;br&gt;&lt;/div&gt;&lt;div align=&quot;left&quot;&gt;arn:aws:iam::aws:policy/AmazonEKS_CNI_Policy - Permite toda comunicação de interface de rede EC2 alocar IP&lt;br&gt;&lt;/div&gt;&lt;div align=&quot;left&quot;&gt;arn:aws:iam::aws:policy/AmazonEC2ContainerRegistryReadOnly - Permite EC2 Ler imagens do ECR&lt;br&gt;&lt;/div&gt;&lt;div align=&quot;left&quot;&gt;arn:aws:iam::aws:policy/AmazonSSMManagedInstanceCore - Permite EC2 comunicar com SSM e serem conectadas&lt;br&gt;&lt;/div&gt;" style="sketch=0;outlineConnect=0;fontColor=#232F3E;gradientColor=none;fillColor=#DD344C;strokeColor=none;dashed=0;verticalLabelPosition=bottom;verticalAlign=top;align=left;html=1;fontSize=12;fontStyle=0;aspect=fixed;pointerEvents=1;shape=mxgraph.aws4.role;" vertex="1" parent="1">
          <mxGeometry x="-1250" y="-370" width="78" height="44" as="geometry" />
        </mxCell>
        <mxCell id="ZzJajBz_bkJ8uXGdbWyk-9" value="&lt;div align=&quot;left&quot;&gt;AWS Role&lt;br&gt;&lt;/div&gt;&lt;div align=&quot;left&quot;&gt;eks-istio-servicemesh-demo&lt;/div&gt;&lt;div align=&quot;left&quot;&gt;&lt;br&gt;&lt;/div&gt;&lt;div align=&quot;left&quot;&gt;arn:aws:iam::aws:policy/AmazonEKSClusterPolicy - Permite EKS Control Plane acessar serviços da AWS&lt;br&gt;&lt;/div&gt;" style="sketch=0;outlineConnect=0;fontColor=#232F3E;gradientColor=none;fillColor=#DD344C;strokeColor=none;dashed=0;verticalLabelPosition=bottom;verticalAlign=top;align=left;html=1;fontSize=12;fontStyle=0;aspect=fixed;pointerEvents=1;shape=mxgraph.aws4.role;" vertex="1" parent="1">
          <mxGeometry x="-1250" y="-110" width="78" height="44" as="geometry" />
        </mxCell>
        <mxCell id="ZzJajBz_bkJ8uXGdbWyk-10" value="&lt;div align=&quot;left&quot;&gt;AWS Role&lt;div style=&quot;white-space: pre;&quot;&gt;&lt;font color=&quot;#000000&quot;&gt;eks-ebs-csi-driver&lt;/font&gt;&lt;/div&gt;&lt;/div&gt;&lt;div align=&quot;left&quot;&gt;&lt;div style=&quot;white-space: pre;&quot;&gt;&lt;span style=&quot;color: #89ff6e;&quot;&gt;&lt;br&gt;&lt;/span&gt;&lt;/div&gt;&lt;div style=&quot;white-space: pre;&quot;&gt;&lt;font color=&quot;#000000&quot;&gt;arn:aws:iam::aws:policy/service-role/AmazonEBSCSIDriverPolicy&lt;/font&gt;&lt;font style=&quot;white-space: nowrap;&quot; color=&quot;#000000&quot;&gt; - Permite EKS StorageClass provisionar volumes EBS&lt;/font&gt;&lt;/div&gt;&lt;/div&gt;" style="sketch=0;outlineConnect=0;fontColor=#232F3E;gradientColor=none;fillColor=#DD344C;strokeColor=none;dashed=0;verticalLabelPosition=bottom;verticalAlign=top;align=left;html=1;fontSize=12;fontStyle=0;aspect=fixed;pointerEvents=1;shape=mxgraph.aws4.role;" vertex="1" parent="1">
          <mxGeometry x="-1250" y="80" width="78" height="44" as="geometry" />
        </mxCell>
        <mxCell id="ZzJajBz_bkJ8uXGdbWyk-33" style="edgeStyle=orthogonalEdgeStyle;rounded=0;orthogonalLoop=1;jettySize=auto;html=1;" edge="1" parent="1" source="ZzJajBz_bkJ8uXGdbWyk-14" target="ZzJajBz_bkJ8uXGdbWyk-6">
          <mxGeometry relative="1" as="geometry">
            <Array as="points">
              <mxPoint x="560" y="-160" />
              <mxPoint x="560" y="-90" />
              <mxPoint x="-420" y="-90" />
              <mxPoint x="-420" y="339" />
            </Array>
          </mxGeometry>
        </mxCell>
        <mxCell id="ZzJajBz_bkJ8uXGdbWyk-14" value="&lt;span style=&quot;background-color: rgb(255, 255, 255);&quot;&gt;Route table&lt;/span&gt;" style="sketch=0;outlineConnect=0;fontColor=#232F3E;gradientColor=none;strokeColor=#232F3E;fillColor=#ffffff;dashed=0;verticalLabelPosition=bottom;verticalAlign=top;align=center;html=1;fontSize=12;fontStyle=0;aspect=fixed;shape=mxgraph.aws4.resourceIcon;resIcon=mxgraph.aws4.route_table;" vertex="1" parent="1">
          <mxGeometry x="589" y="-190" width="60" height="60" as="geometry" />
        </mxCell>
      </root>
    </mxGraphModel>
  </diagram>
</mxfile>
